<svg width="20" height="20" viewBox="0 0 20 20" fill="none" xmlns="http://www.w3.org/2000/svg">
<path fill-rule="evenodd" clip-rule="evenodd" d="M8.2267 2C7.93295 1.99986 7.64519 2.07998 7.39688 2.23104C7.14857 2.3821 6.94992 2.5979 6.82402 2.85333C6.21756 2.85845 5.74586 2.88491 5.32381 3.04363C4.82 3.2333 4.38183 3.55564 4.05945 3.97376C3.73405 4.39445 3.58066 4.93547 3.37141 5.67872L3.32974 5.82379L2.87489 8.35307C2.71116 8.46172 2.56752 8.59228 2.44398 8.74475C1.64511 9.72864 2.02548 11.1938 2.78623 14.1216C3.26945 15.9844 3.5115 16.9154 4.23324 17.4581C4.95497 18 5.95245 18 7.94741 18H12.0526C14.0476 18 15.045 18 15.7668 17.4581C16.4885 16.9154 16.7297 15.9844 17.2138 14.1216C17.9745 11.193 18.3549 9.72949 17.556 8.74475C17.4338 8.59346 17.2881 8.46108 17.1242 8.35221L16.6694 5.82464L16.6286 5.67957C16.4185 4.93547 16.2651 4.39445 15.9405 3.97291C15.618 3.5551 15.1799 3.23306 14.6762 3.04363C14.2541 2.88491 13.7816 2.85845 13.176 2.85419C13.0502 2.59859 12.8516 2.38262 12.6033 2.2314C12.355 2.08018 12.0671 1.99994 11.7733 2H8.2267ZM15.6905 7.88459L15.3695 6.10283C15.1186 5.21536 15.0273 4.93632 14.873 4.73664C14.6994 4.51145 14.4634 4.33786 14.1921 4.23573C13.997 4.16235 13.7612 4.14101 13.1742 4.13504C13.0482 4.3899 12.8497 4.60516 12.6018 4.75589C12.3538 4.90662 12.0666 4.98664 11.7733 4.98667H8.2267C7.93344 4.98664 7.64619 4.90662 7.39824 4.75589C7.1503 4.60516 6.95182 4.3899 6.8258 4.13504C6.23795 4.14101 6.00299 4.16235 5.80792 4.23573C5.53658 4.33786 5.30059 4.51145 5.12698 4.73664C4.9727 4.93632 4.88138 5.21451 4.63045 6.10197L4.30949 7.88459C5.19436 7.76 6.37361 7.76 7.94741 7.76H12.0526C13.6264 7.76 14.8056 7.76 15.6905 7.88459ZM6.4534 10.5333C6.62977 10.5333 6.79891 10.6008 6.92362 10.7208C7.04833 10.8408 7.11839 11.0036 7.11839 11.1733V14.5867C7.11839 14.7564 7.04833 14.9192 6.92362 15.0392C6.79891 15.1592 6.62977 15.2267 6.4534 15.2267C6.27704 15.2267 6.1079 15.1592 5.98319 15.0392C5.85848 14.9192 5.78842 14.7564 5.78842 14.5867V11.1733C5.78842 11.0036 5.85848 10.8408 5.98319 10.7208C6.1079 10.6008 6.27704 10.5333 6.4534 10.5333ZM14.2116 11.1733C14.2116 11.0036 14.1415 10.8408 14.0168 10.7208C13.8921 10.6008 13.723 10.5333 13.5466 10.5333C13.3702 10.5333 13.2011 10.6008 13.0764 10.7208C12.9517 10.8408 12.8816 11.0036 12.8816 11.1733V14.5867C12.8816 14.7564 12.9517 14.9192 13.0764 15.0392C13.2011 15.1592 13.3702 15.2267 13.5466 15.2267C13.723 15.2267 13.8921 15.1592 14.0168 15.0392C14.1415 14.9192 14.2116 14.7564 14.2116 14.5867V11.1733ZM10 10.5333C10.1764 10.5333 10.3455 10.6008 10.4702 10.7208C10.5949 10.8408 10.665 11.0036 10.665 11.1733V14.5867C10.665 14.7564 10.5949 14.9192 10.4702 15.0392C10.3455 15.1592 10.1764 15.2267 10 15.2267C9.82363 15.2267 9.65449 15.1592 9.52978 15.0392C9.40507 14.9192 9.33501 14.7564 9.33501 14.5867V11.1733C9.33501 11.0036 9.40507 10.8408 9.52978 10.7208C9.65449 10.6008 9.82363 10.5333 10 10.5333Z" fill="url(#paint0_linear_102_385)"/>
<defs>
<linearGradient id="paint0_linear_102_385" x1="12.6667" y1="5.55556" x2="0.571427" y2="26" gradientUnits="userSpaceOnUse">
<stop stop-color="white"/>
<stop offset="1" stop-color="white" stop-opacity="0"/>
</linearGradient>
</defs>
</svg>
