<svg width="40" height="40" viewBox="0 0 40 40" fill="none" xmlns="http://www.w3.org/2000/svg">
<rect x="1" y="1" width="38" height="38" rx="19" stroke="#4D4753" stroke-opacity="0.4" stroke-width="2"/>
<g opacity="0.8">
<path d="M20.0001 11.6667C24.6084 11.6667 28.3334 15.3917 28.3334 20C28.3334 24.6083 24.6084 28.3333 20.0001 28.3333C15.3917 28.3333 11.6667 24.6083 11.6667 20C11.6667 15.3917 15.3917 11.6667 20.0001 11.6667ZM23.5792 16.4208C23.2548 16.0964 22.7287 16.0964 22.4042 16.4208L20.0001 18.825L17.5959 16.4208C17.2714 16.0964 16.7454 16.0964 16.4209 16.4208C16.0964 16.7453 16.0964 17.2714 16.4209 17.5958L18.8251 20L16.4209 22.4042C16.0964 22.7286 16.0964 23.2547 16.4209 23.5792C16.7454 23.9036 17.2714 23.9036 17.5959 23.5792L20.0001 21.175L22.4042 23.5792C22.7287 23.9036 23.2548 23.9036 23.5792 23.5792C23.9037 23.2547 23.9037 22.7286 23.5792 22.4042L21.1751 20L23.5792 17.5958C23.9037 17.2714 23.9037 16.7453 23.5792 16.4208Z" fill="#4D4753"/>
</g>
</svg>
