<svg width="16" height="16" viewBox="0 0 16 16" fill="none" xmlns="http://www.w3.org/2000/svg">
<g opacity="0.8">
<path d="M4.3999 7.59801C4.3999 5.78068 4.3999 4.87201 4.9619 4.30734C5.52457 3.74268 6.42924 3.74268 8.2399 3.74268H10.1599C11.9699 3.74268 12.8752 3.74268 13.4372 4.30734C13.9999 4.87201 13.9999 5.78068 13.9999 7.59801V10.8113C13.9999 12.6287 13.9999 13.5373 13.4372 14.102C12.8752 14.6667 11.9699 14.6667 10.1599 14.6667H8.2399C6.42924 14.6667 5.52457 14.6667 4.9619 14.102C4.39924 13.5373 4.3999 12.6287 4.3999 10.8113V7.59801Z" fill="#8B799D"/>
<path opacity="0.5" d="M2.78133 2.11468C2 2.89534 2 4.15268 2 6.66668V8.00001C2 10.514 2 11.7713 2.78133 12.552C3.19267 12.964 3.73667 13.1587 4.528 13.2507C4.4 12.6907 4.4 11.92 4.4 10.8107V7.59801C4.4 5.78068 4.4 4.87201 4.962 4.30734C5.52467 3.74268 6.42933 3.74268 8.24 3.74268H10.16C11.2613 3.74268 12.0267 3.74268 12.5853 3.86934C12.4933 3.07401 12.2987 2.52801 11.8853 2.11468C11.1047 1.33334 9.84733 1.33334 7.33333 1.33334C4.81933 1.33334 3.562 1.33334 2.78133 2.11468Z" fill="#8B799D"/>
</g>
</svg>
