<svg width="34" height="34" viewBox="0 0 34 34" fill="none" xmlns="http://www.w3.org/2000/svg">
<path d="M11.9311 29.2088C14.4188 30.515 15.6626 31.1667 16.9999 31.1667V17L3.73709 10.0201L3.68042 10.115C2.83325 11.5515 2.83325 13.3407 2.83325 16.9178V17.0836C2.83325 20.6592 2.83325 22.4485 3.679 23.885C4.52617 25.3229 6.0505 26.1233 9.09775 27.7227L11.9311 29.2088Z" fill="#E7310D"/>
<path opacity="0.7" d="M24.9006 6.27865L22.0673 4.79115C19.5811 3.4864 18.3372 2.83331 16.9999 2.83331C15.6611 2.83331 14.4187 3.48498 11.9311 4.79115L9.09773 6.27865C6.11706 7.84265 4.59273 8.64165 3.73706 10.0186L16.9999 17L30.2627 10.0201C29.4042 8.64165 27.8827 7.84265 24.9006 6.27865Z" fill="#E7310D"/>
<path opacity="0.5" d="M30.3209 10.115L30.2628 10.0201L17 17V31.1667C18.3373 31.1667 19.5812 30.515 22.0688 29.2088L24.9022 27.7213C27.9494 26.1219 29.4737 25.3229 30.3209 23.885C31.1667 22.4485 31.1667 20.6592 31.1667 17.085V16.9192C31.1667 13.3422 31.1667 11.5515 30.3209 10.115Z" fill="#E7310D"/>
</svg>
