<svg width="34" height="34" viewBox="0 0 34 34" fill="none" xmlns="http://www.w3.org/2000/svg">
<path fill-rule="evenodd" clip-rule="evenodd" d="M5.91033 4.49367C4.25 6.15259 4.25 8.82442 4.25 14.1667V19.8333C4.25 25.1756 4.25 27.8474 5.91033 29.5063C7.57067 31.1653 10.2411 31.1667 15.5833 31.1667H18.4167C23.7589 31.1667 26.4307 31.1667 28.0897 29.5063C29.7486 27.846 29.75 25.1756 29.75 19.8333V14.1667C29.75 8.82442 29.75 6.15259 28.0897 4.49367C26.4293 2.83475 23.7589 2.83334 18.4167 2.83334H15.5833C10.2411 2.83334 7.56925 2.83334 5.91033 4.49367ZM10.2708 11.3333C10.2708 11.0515 10.3828 10.7813 10.582 10.582C10.7813 10.3828 11.0515 10.2708 11.3333 10.2708H22.6667C22.9485 10.2708 23.2187 10.3828 23.418 10.582C23.6172 10.7813 23.7292 11.0515 23.7292 11.3333C23.7292 11.6151 23.6172 11.8854 23.418 12.0846C23.2187 12.2839 22.9485 12.3958 22.6667 12.3958H11.3333C11.0515 12.3958 10.7813 12.2839 10.582 12.0846C10.3828 11.8854 10.2708 11.6151 10.2708 11.3333ZM10.2708 17C10.2708 16.7182 10.3828 16.448 10.582 16.2487C10.7813 16.0494 11.0515 15.9375 11.3333 15.9375H22.6667C22.9485 15.9375 23.2187 16.0494 23.418 16.2487C23.6172 16.448 23.7292 16.7182 23.7292 17C23.7292 17.2818 23.6172 17.552 23.418 17.7513C23.2187 17.9506 22.9485 18.0625 22.6667 18.0625H11.3333C11.0515 18.0625 10.7813 17.9506 10.582 17.7513C10.3828 17.552 10.2708 17.2818 10.2708 17ZM11.3333 21.6042C11.0515 21.6042 10.7813 21.7161 10.582 21.9154C10.3828 22.1146 10.2708 22.3849 10.2708 22.6667C10.2708 22.9485 10.3828 23.2187 10.582 23.418C10.7813 23.6172 11.0515 23.7292 11.3333 23.7292H18.4167C18.6985 23.7292 18.9687 23.6172 19.168 23.418C19.3672 23.2187 19.4792 22.9485 19.4792 22.6667C19.4792 22.3849 19.3672 22.1146 19.168 21.9154C18.9687 21.7161 18.6985 21.6042 18.4167 21.6042H11.3333Z" fill="#E7310D"/>
</svg>
