<svg width="40" height="40" viewBox="0 0 40 40" fill="none" xmlns="http://www.w3.org/2000/svg">
<rect width="40" height="40" rx="20" fill="#10142F"/>
<rect width="40" height="40" rx="20" fill="url(#paint0_radial_124_2)" fill-opacity="0.19"/>
<rect x="0.5" y="0.5" width="39" height="39" rx="19.5" stroke="#8B8B8B" stroke-opacity="0.4"/>
<path d="M20 28.3333C24.6025 28.3333 28.3333 24.6025 28.3333 20C28.3333 19.6142 27.755 19.55 27.5558 19.8808C27.131 20.5845 26.5517 21.1822 25.8616 21.6287C25.1716 22.0753 24.389 22.3589 23.5732 22.4583C22.7573 22.5576 21.9295 22.4699 21.1525 22.2019C20.3755 21.9339 19.6697 21.4926 19.0885 20.9114C18.5074 20.3303 18.0661 19.6244 17.7981 18.8475C17.5301 18.0705 17.4424 17.2427 17.5417 16.4268C17.641 15.6109 17.9247 14.8283 18.3712 14.1383C18.8178 13.4483 19.4155 12.869 20.1191 12.4442C20.45 12.2442 20.3858 11.6667 20 11.6667C15.3975 11.6667 11.6666 15.3975 11.6666 20C11.6666 24.6025 15.3975 28.3333 20 28.3333Z" fill="#FFD6A7"/>
<defs>
<radialGradient id="paint0_radial_124_2" cx="0" cy="0" r="1" gradientUnits="userSpaceOnUse" gradientTransform="translate(36 6.5) rotate(134.738) scale(77.429 52.8863)">
<stop offset="0.447015" stop-color="#10142F" stop-opacity="0"/>
<stop offset="0.447115" stop-color="#717ABD"/>
</radialGradient>
</defs>
</svg>
