<svg width="20" height="20" viewBox="0 0 20 20" fill="none" xmlns="http://www.w3.org/2000/svg">
<path fill-rule="evenodd" clip-rule="evenodd" d="M10 18.3333C14.6025 18.3333 18.3334 14.6025 18.3334 10C18.3334 5.3975 14.6025 1.66667 10 1.66667C5.39752 1.66667 1.66669 5.3975 1.66669 10C1.66669 14.6025 5.39752 18.3333 10 18.3333ZM10.625 7.5C10.625 7.33424 10.5592 7.17527 10.442 7.05806C10.3248 6.94085 10.1658 6.875 10 6.875C9.83426 6.875 9.67529 6.94085 9.55808 7.05806C9.44087 7.17527 9.37502 7.33424 9.37502 7.5V9.375H7.50002C7.33426 9.375 7.17529 9.44085 7.05808 9.55806C6.94087 9.67527 6.87502 9.83424 6.87502 10C6.87502 10.1658 6.94087 10.3247 7.05808 10.4419C7.17529 10.5592 7.33426 10.625 7.50002 10.625H9.37502V12.5C9.37502 12.6658 9.44087 12.8247 9.55808 12.9419C9.67529 13.0592 9.83426 13.125 10 13.125C10.1658 13.125 10.3248 13.0592 10.442 12.9419C10.5592 12.8247 10.625 12.6658 10.625 12.5V10.625H12.5C12.6658 10.625 12.8248 10.5592 12.942 10.4419C13.0592 10.3247 13.125 10.1658 13.125 10C13.125 9.83424 13.0592 9.67527 12.942 9.55806C12.8248 9.44085 12.6658 9.375 12.5 9.375H10.625V7.5Z" fill="url(#paint0_linear_99_85)"/>
<defs>
<linearGradient id="paint0_linear_99_85" x1="4.50006" y1="-5.05718e-08" x2="-6.99994" y2="18" gradientUnits="userSpaceOnUse">
<stop stop-color="white"/>
<stop offset="1" stop-color="white" stop-opacity="0"/>
</linearGradient>
</defs>
</svg>
