<svg width="20" height="20" viewBox="0 0 20 20" fill="none" xmlns="http://www.w3.org/2000/svg">
<path d="M9.99999 1.66667C11.0943 1.66667 12.178 1.88222 13.189 2.30101C14.2001 2.71979 15.1187 3.33362 15.8925 4.10744C16.6664 4.88127 17.2802 5.79993 17.699 6.81097C18.1178 7.82202 18.3333 8.90565 18.3333 10C18.3333 12.2101 17.4553 14.3298 15.8925 15.8926C14.3297 17.4554 12.2101 18.3333 9.99999 18.3333C6.16666 18.3333 2.95832 15.7667 1.96666 12.275L5.15832 13.5917C5.26769 14.1255 5.5579 14.6052 5.97997 14.9498C6.40203 15.2945 6.93009 15.4829 7.47499 15.4833C8.77499 15.4833 9.83332 14.425 9.83332 13.125V13.0167L12.6667 10.9917H12.7333C14.4667 10.9917 15.875 9.58333 15.875 7.85C15.875 6.11667 14.4667 4.70833 12.7333 4.70833C11 4.70833 9.58332 6.11667 9.58332 7.85V7.89167L7.60832 10.775L7.47499 10.7667C6.98332 10.7667 6.52499 10.9167 6.14999 11.175L1.66666 9.33333C2.02499 5.04167 5.60832 1.66667 9.99999 1.66667ZM6.89999 14.3083C7.56666 14.5833 8.33332 14.275 8.60832 13.6083C8.88332 12.9417 8.56666 12.1833 7.91666 11.9083L6.84999 11.4667C7.25832 11.3167 7.71666 11.3083 8.14999 11.4917C8.59166 11.6667 8.93332 12.0083 9.10832 12.45C9.29166 12.8833 9.29166 13.3667 9.10832 13.8C8.74999 14.7 7.69166 15.1333 6.79166 14.7583C6.37499 14.5833 6.05832 14.2667 5.88332 13.8917L6.89999 14.3083ZM14.8333 7.85C14.8333 9.00833 13.8917 9.95 12.7333 9.95C12.1778 9.9478 11.6458 9.72557 11.2538 9.33199C10.8618 8.9384 10.6417 8.40552 10.6417 7.85C10.6406 7.57501 10.6939 7.30252 10.7986 7.04825C10.9034 6.79398 11.0574 6.56296 11.2518 6.36851C11.4463 6.17406 11.6773 6.02003 11.9316 5.91531C12.1858 5.81058 12.4583 5.75723 12.7333 5.75833C13.2888 5.75833 13.8217 5.97844 14.2153 6.37046C14.6089 6.76249 14.8311 7.29449 14.8333 7.85ZM11.1667 7.85C11.1667 8.71667 11.8667 9.425 12.7417 9.425C13.6083 9.425 14.3083 8.71667 14.3083 7.85C14.3083 6.98333 13.6083 6.275 12.7417 6.275C11.8667 6.275 11.1667 6.98333 11.1667 7.85Z" fill="#474A53"/>
</svg>
