<svg width="40" height="40" viewBox="0 0 40 40" fill="none" xmlns="http://www.w3.org/2000/svg">
<rect width="40" height="40" rx="20" fill="#7184FF"/>
<rect width="40" height="40" rx="20" fill="url(#paint0_radial_154_493)" fill-opacity="0.19"/>
<rect x="0.5" y="0.5" width="39" height="39" rx="19.5" stroke="#8B8B8B" stroke-opacity="0.4"/>
<path d="M24.1666 20C24.1666 21.1051 23.7276 22.1649 22.9462 22.9463C22.1648 23.7277 21.105 24.1667 19.9999 24.1667C18.8948 24.1667 17.835 23.7277 17.0536 22.9463C16.2722 22.1649 15.8333 21.1051 15.8333 20C15.8333 18.8949 16.2722 17.8351 17.0536 17.0537C17.835 16.2723 18.8948 15.8333 19.9999 15.8333C21.105 15.8333 22.1648 16.2723 22.9462 17.0537C23.7276 17.8351 24.1666 18.8949 24.1666 20Z" fill="#FFDC69"/>
<path fill-rule="evenodd" clip-rule="evenodd" d="M20.0001 11.0417C20.1658 11.0417 20.3248 11.1075 20.442 11.2247C20.5592 11.3419 20.6251 11.5009 20.6251 11.6667V13.3333C20.6251 13.4991 20.5592 13.6581 20.442 13.7753C20.3248 13.8925 20.1658 13.9583 20.0001 13.9583C19.8343 13.9583 19.6754 13.8925 19.5581 13.7753C19.4409 13.6581 19.3751 13.4991 19.3751 13.3333V11.6667C19.3751 11.5009 19.4409 11.3419 19.5581 11.2247C19.6754 11.1075 19.8343 11.0417 20.0001 11.0417ZM13.0576 13.0967C13.113 13.0361 13.1798 12.987 13.2542 12.9522C13.3286 12.9175 13.4091 12.8977 13.4911 12.894C13.5732 12.8904 13.6551 12.903 13.7323 12.931C13.8095 12.9591 13.8804 13.002 13.9409 13.0575L15.7917 14.75C15.8536 14.805 15.9039 14.8718 15.9397 14.9464C15.9755 15.0211 15.9962 15.1021 16.0005 15.1847C16.0047 15.2674 15.9925 15.3501 15.9646 15.428C15.9366 15.5059 15.8934 15.5775 15.8376 15.6386C15.7817 15.6997 15.7143 15.7491 15.6392 15.7839C15.5641 15.8188 15.4828 15.8383 15.4001 15.8415C15.3174 15.8446 15.2348 15.8313 15.1573 15.8023C15.0798 15.7733 15.0088 15.7292 14.9484 15.6725L13.0967 13.98C13.0361 13.9246 12.9871 13.8578 12.9523 13.7834C12.9175 13.709 12.8978 13.6285 12.8941 13.5465C12.8905 13.4644 12.9031 13.3825 12.9311 13.3053C12.9591 13.2281 13.0021 13.1572 13.0576 13.0967ZM26.9426 13.0967C26.998 13.1572 27.041 13.2281 27.0691 13.3053C27.0971 13.3825 27.1097 13.4644 27.106 13.5465C27.1024 13.6285 27.0826 13.709 27.0479 13.7834C27.0131 13.8578 26.964 13.9246 26.9034 13.98L25.0517 15.6725C24.929 15.7817 24.7682 15.8382 24.6041 15.8298C24.44 15.8213 24.2859 15.7486 24.175 15.6273C24.0641 15.506 24.0055 15.346 24.0117 15.1818C24.018 15.0176 24.0886 14.8625 24.2084 14.75L26.0601 13.0575C26.1206 13.002 26.1915 12.9591 26.2687 12.931C26.3459 12.903 26.4278 12.8904 26.5099 12.894C26.5919 12.8977 26.6724 12.9175 26.7468 12.9522C26.8212 12.987 26.888 13.0361 26.9434 13.0967M11.0417 20C11.0417 19.8342 11.1076 19.6753 11.2248 19.5581C11.342 19.4408 11.501 19.375 11.6667 19.375H13.3334C13.4992 19.375 13.6581 19.4408 13.7754 19.5581C13.8926 19.6753 13.9584 19.8342 13.9584 20C13.9584 20.1658 13.8926 20.3247 13.7754 20.4419C13.6581 20.5592 13.4992 20.625 13.3334 20.625H11.6667C11.501 20.625 11.342 20.5592 11.2248 20.4419C11.1076 20.3247 11.0417 20.1658 11.0417 20ZM26.0417 20C26.0417 19.8342 26.1076 19.6753 26.2248 19.5581C26.342 19.4408 26.501 19.375 26.6667 19.375H28.3334C28.4992 19.375 28.6581 19.4408 28.7754 19.5581C28.8926 19.6753 28.9584 19.8342 28.9584 20C28.9584 20.1658 28.8926 20.3247 28.7754 20.4419C28.6581 20.5592 28.4992 20.625 28.3334 20.625H26.6667C26.501 20.625 26.342 20.5592 26.2248 20.4419C26.1076 20.3247 26.0417 20.1658 26.0417 20ZM24.1884 24.1875C24.3056 24.0705 24.4645 24.0047 24.6301 24.0047C24.7957 24.0047 24.9546 24.0705 25.0717 24.1875L26.9234 26.04C27.0338 26.1585 27.0939 26.3152 27.0911 26.4771C27.0882 26.639 27.0226 26.7935 26.9081 26.908C26.7936 27.0225 26.6391 27.0881 26.4772 27.091C26.3153 27.0938 26.1586 27.0337 26.0401 26.9233L24.1884 25.0717C24.0714 24.9545 24.0056 24.7956 24.0056 24.63C24.0056 24.4644 24.0714 24.3047 24.1884 24.1875ZM15.8126 24.1883C15.8707 24.2464 15.9167 24.3153 15.9482 24.3911C15.9796 24.467 15.9958 24.5483 15.9958 24.6304C15.9958 24.7125 15.9796 24.7938 15.9482 24.8697C15.9167 24.9455 15.8707 25.0145 15.8126 25.0725L13.9601 26.9242C13.8416 27.0346 13.6849 27.0947 13.523 27.0918C13.3611 27.089 13.2066 27.0234 13.0921 26.9089C12.9776 26.7943 12.912 26.6399 12.9091 26.4779C12.9062 26.316 12.9663 26.1593 13.0767 26.0408L14.9284 24.1883C15.0456 24.0713 15.2045 24.0056 15.3701 24.0056C15.5357 24.0056 15.6954 24.0713 15.8126 24.1883ZM20.0001 26.0417C20.1658 26.0417 20.3248 26.1075 20.442 26.2247C20.5592 26.3419 20.6251 26.5009 20.6251 26.6667V28.3333C20.6251 28.4991 20.5592 28.6581 20.442 28.7753C20.3248 28.8925 20.1658 28.9583 20.0001 28.9583C19.8343 28.9583 19.6754 28.8925 19.5581 28.7753C19.4409 28.6581 19.3751 28.4991 19.3751 28.3333V26.6667C19.3751 26.5009 19.4409 26.3419 19.5581 26.2247C19.6754 26.1075 19.8343 26.0417 20.0001 26.0417Z" fill="#FFDC69"/>
<defs>
<radialGradient id="paint0_radial_154_493" cx="0" cy="0" r="1" gradientUnits="userSpaceOnUse" gradientTransform="translate(36 6.5) rotate(134.738) scale(77.429 52.8863)">
<stop offset="0.447015" stop-color="#10142F" stop-opacity="0"/>
<stop offset="0.447115" stop-color="white"/>
</radialGradient>
</defs>
</svg>
