<svg width="107" height="20" viewBox="0 0 107 20" fill="none" xmlns="http://www.w3.org/2000/svg">
<path d="M34.7458 11.7446H37.8839C37.9194 11.9845 38.0302 12.1967 38.2164 12.3813C38.4114 12.5566 38.6729 12.695 39.0009 12.7965C39.3289 12.8888 39.7145 12.9349 40.1577 12.9349C40.7694 12.9349 41.2437 12.8611 41.5805 12.7134C41.9263 12.5658 42.0991 12.3397 42.0991 12.0353C42.0991 11.823 42.0016 11.6523 41.8066 11.5232C41.6116 11.3848 41.2259 11.2925 40.6497 11.2464L38.8945 11.0941C37.4584 10.9834 36.4168 10.6605 35.7697 10.1253C35.1314 9.58092 34.8123 8.852 34.8123 7.93854C34.8123 7.19116 35.0206 6.56835 35.4373 6.0701C35.8539 5.56262 36.4346 5.1797 37.1792 4.92135C37.9238 4.663 38.8014 4.53382 39.812 4.53382C40.7871 4.53382 41.6514 4.67684 42.4049 4.96287C43.1673 5.2489 43.7701 5.65489 44.2134 6.18082C44.6655 6.69752 44.9137 7.30188 44.958 7.9939H41.8199C41.7844 7.79091 41.6825 7.6156 41.514 7.46797C41.3545 7.31111 41.124 7.19116 40.8226 7.10812C40.5212 7.02508 40.1622 6.98355 39.7455 6.98355C39.1959 6.98355 38.7571 7.05276 38.4291 7.19116C38.11 7.32956 37.9504 7.53717 37.9504 7.81397C37.9504 8.01696 38.0435 8.18305 38.2297 8.31222C38.4247 8.4414 38.7793 8.52906 39.2934 8.57519L41.2215 8.74127C42.1789 8.81509 42.9501 8.97194 43.5352 9.21184C44.1291 9.44252 44.5591 9.76084 44.825 10.1668C45.091 10.5636 45.2239 11.0664 45.2239 11.6754C45.2239 12.4136 45.0112 13.0641 44.5857 13.6269C44.1602 14.1805 43.5618 14.6142 42.7906 14.9279C42.0282 15.2324 41.1329 15.3846 40.1045 15.3846C39.0496 15.3846 38.1233 15.2324 37.3255 14.9279C36.5276 14.6234 35.9027 14.199 35.4506 13.6546C34.9985 13.101 34.7636 12.4643 34.7458 11.7446Z" fill="#CE97FF"/>
<path d="M45.5923 9.54401V8.17382L47.1082 7.45412L48.4379 5.07359H50.1665V7.21884H53.2514V9.54401H50.1665V11.5232C50.1665 12.0583 50.264 12.4366 50.459 12.6581C50.6629 12.8795 51.0574 12.9902 51.6425 12.9902C52.0059 12.9902 52.3295 12.9626 52.6132 12.9072C52.8968 12.8426 53.1539 12.7642 53.3844 12.6719V15.0109C53.1007 15.1032 52.7417 15.1862 52.3073 15.2601C51.873 15.3431 51.4164 15.3846 50.9377 15.3846C50.069 15.3846 49.3509 15.2462 48.7836 14.9694C48.2251 14.6926 47.8041 14.2958 47.5204 13.7791C47.2456 13.2624 47.1082 12.6535 47.1082 11.9522V9.54401H45.5923Z" fill="#CE97FF"/>
<path d="M61.0627 15.1493L60.7037 12.3259L61.076 11.191L60.7037 10.0699L61.0627 7.21884H64.2274L63.7221 11.1772L64.2274 15.1493H61.0627ZM61.7409 11.191C61.6345 12.0306 61.3996 12.7688 61.0361 13.4055C60.6815 14.0329 60.2206 14.5219 59.6532 14.8725C59.0948 15.2139 58.4521 15.3846 57.7252 15.3846C56.9894 15.3846 56.3378 15.2093 55.7705 14.8587C55.2032 14.5081 54.7599 14.019 54.4408 13.3916C54.1305 12.755 53.9754 12.0214 53.9754 11.191C53.9754 10.3421 54.1305 9.60398 54.4408 8.97656C54.7599 8.3399 55.2032 7.85088 55.7705 7.50949C56.3378 7.15887 56.9894 6.98355 57.7252 6.98355C58.4521 6.98355 59.0948 7.15425 59.6532 7.49565C60.2206 7.83704 60.686 8.32606 61.0494 8.96272C61.4129 9.59014 61.6434 10.3329 61.7409 11.191ZM57.047 11.191C57.047 11.5416 57.1135 11.8507 57.2465 12.1183C57.3883 12.3859 57.5833 12.5981 57.8315 12.755C58.0797 12.9118 58.3634 12.9902 58.6825 12.9902C59.0105 12.9902 59.3252 12.9118 59.6266 12.755C59.928 12.5981 60.194 12.3859 60.4245 12.1183C60.655 11.8507 60.8234 11.5416 60.9298 11.191C60.8234 10.8404 60.655 10.5313 60.4245 10.2637C60.194 9.9869 59.928 9.77007 59.6266 9.61321C59.3252 9.45636 59.0105 9.37793 58.6825 9.37793C58.3634 9.37793 58.0797 9.45636 57.8315 9.61321C57.5833 9.77007 57.3883 9.9869 57.2465 10.2637C57.1135 10.5313 57.047 10.8404 57.047 11.191Z" fill="#CE97FF"/>
<path d="M65.0634 7.21884H68.1749L68.627 10.0284V15.1493H65.582V9.93154L65.0634 7.21884ZM72.0975 7.0666V9.76545C71.8139 9.71009 71.5524 9.67319 71.313 9.65473C71.0825 9.62705 70.8698 9.61321 70.6748 9.61321C70.3113 9.61321 69.9744 9.68703 69.6642 9.83466C69.3539 9.97306 69.1013 10.2176 68.9062 10.5682C68.7201 10.9096 68.627 11.3848 68.627 11.9937L68.0685 11.274C68.1483 10.702 68.2547 10.1622 68.3877 9.65473C68.5295 9.13803 68.7201 8.6813 68.9594 8.28454C69.1988 7.87856 69.4957 7.56023 69.8503 7.32956C70.2138 7.09889 70.657 6.98355 71.18 6.98355C71.3219 6.98355 71.4681 6.99278 71.6188 7.01124C71.7695 7.02046 71.9291 7.03892 72.0975 7.0666Z" fill="#CE97FF"/>
<path d="M72.9929 4.4923H76.0379V15.1493H72.9929V4.4923Z" fill="#CE97FF"/>
<path d="M84.2287 15.1493L83.8697 12.3259L84.242 11.191L83.8697 10.0699L84.2287 7.21884H87.3934L86.8882 11.1772L87.3934 15.1493H84.2287ZM84.9069 11.191C84.8005 12.0306 84.5656 12.7688 84.2022 13.4055C83.8476 14.0329 83.3866 14.5219 82.8193 14.8725C82.2608 15.2139 81.6181 15.3846 80.8912 15.3846C80.1554 15.3846 79.5038 15.2093 78.9365 14.8587C78.3692 14.5081 77.9259 14.019 77.6068 13.3916C77.2965 12.755 77.1414 12.0214 77.1414 11.191C77.1414 10.3421 77.2965 9.60398 77.6068 8.97656C77.9259 8.3399 78.3692 7.85088 78.9365 7.50949C79.5038 7.15887 80.1554 6.98355 80.8912 6.98355C81.6181 6.98355 82.2608 7.15425 82.8193 7.49565C83.3866 7.83704 83.852 8.32606 84.2154 8.96272C84.5789 9.59014 84.8094 10.3329 84.9069 11.191ZM80.213 11.191C80.213 11.5416 80.2795 11.8507 80.4125 12.1183C80.5543 12.3859 80.7493 12.5981 80.9976 12.755C81.2458 12.9118 81.5294 12.9902 81.8486 12.9902C82.1766 12.9902 82.4913 12.9118 82.7927 12.755C83.0941 12.5981 83.36 12.3859 83.5905 12.1183C83.821 11.8507 83.9894 11.5416 84.0958 11.191C83.9894 10.8404 83.821 10.5313 83.5905 10.2637C83.36 9.9869 83.0941 9.77007 82.7927 9.61321C82.4913 9.45636 82.1766 9.37793 81.8486 9.37793C81.5294 9.37793 81.2458 9.45636 80.9976 9.61321C80.7493 9.77007 80.5543 9.9869 80.4125 10.2637C80.2795 10.5313 80.213 10.8404 80.213 11.191Z" fill="#CE97FF"/>
<path d="M91.6335 12.6581L90.809 12.3674L94.8248 7.21884H97.9629L91.301 15.1493H88.5884V4.4923H91.6335V12.6581ZM92.6573 11.3017L94.9843 9.68241L98.1623 15.1493H94.7583L92.6573 11.3017Z" fill="#CE97FF"/>
<path d="M102.772 15.3846C101.832 15.3846 100.994 15.2093 100.258 14.8587C99.5226 14.5081 98.942 14.0144 98.5165 13.3778C98.091 12.7411 97.8782 11.9984 97.8782 11.1495C97.8782 10.3191 98.0821 9.59014 98.4899 8.96272C98.9065 8.33529 99.4694 7.85088 100.179 7.50949C100.897 7.15887 101.699 6.98355 102.585 6.98355C103.516 6.98355 104.31 7.18655 104.966 7.59253C105.622 7.98928 106.122 8.55674 106.468 9.29489C106.823 10.033 107 10.9004 107 11.8969H100.365V10.3329H105.245L104.354 10.8588C104.31 10.4621 104.212 10.1345 104.061 9.87618C103.92 9.6086 103.724 9.40561 103.476 9.2672C103.237 9.1288 102.949 9.0596 102.612 9.0596C102.24 9.0596 101.921 9.14264 101.655 9.30873C101.397 9.47481 101.198 9.70548 101.056 10.0007C100.923 10.296 100.857 10.6328 100.857 11.0111C100.857 11.4817 100.954 11.8784 101.149 12.2013C101.353 12.5243 101.659 12.7734 102.067 12.9487C102.475 13.1148 102.98 13.1978 103.583 13.1978C104.159 13.1978 104.722 13.1194 105.271 12.9626C105.83 12.8057 106.34 12.575 106.801 12.2705V14.1251C106.26 14.5311 105.635 14.8448 104.926 15.0663C104.216 15.2785 103.498 15.3846 102.772 15.3846Z" fill="#CE97FF"/>
<path d="M21.2314 7.69231C24.7006 7.69231 27.5129 10.4475 27.5129 13.8462C27.5129 17.2448 24.7006 20 21.2314 20H0L3.48622 15.3846H8.41719L7.12949 17.6L14.6673 15.3846H21.2314C22.0987 15.3846 22.8018 14.6958 22.8018 13.8462C22.8018 12.9965 22.0987 12.3077 21.2314 12.3077H15.3268L14.6987 7.72308L21.2314 7.69231Z" fill="#C891FF"/>
<path d="M12.5002 4.61539H9.7363C8.86901 4.61539 8.16593 5.30418 8.16593 6.15385C8.16593 7.00352 8.86901 7.69231 9.7363 7.69231V12.3077L9.65508 12.3072C6.22335 12.2646 3.45482 9.52596 3.45482 6.15385C3.45482 2.75517 6.26713 1.58589e-07 9.7363 0H29.8371L28.1882 4.61539H16.5831L12.5002 1.96923V4.61539Z" fill="#C891FF"/>
<path d="M14.4967 7.7021H21.1842L15.7903 11.505L17.838 17.6206L12.477 13.8409L7.11605 17.6207L9.18146 11.4525L4.18216 7.7021H10.4574L12.477 1.88053L14.4967 7.7021Z" fill="#C891FF"/>
</svg>
